<svg viewBox="0 0 240.9 223.8" xmlns="http://www.w3.org/2000/svg"><path d="m13 144.2-13-13.8 20.2-25.3-4.9 27.4zm213.9-.2 14-13.7-21-24.1 3.9 20.7z" fill="#5c1f1b"/><circle cx="120" cy="111.9" fill="#fff" r="110.9"/><path d="m120 223.8c-61.7 0-111.9-50.2-111.9-111.9s50.2-111.9 111.9-111.9 111.9 50.2 111.9 111.9-50.2 111.9-111.9 111.9zm0-221.8c-60.6 0-109.9 49.3-109.9 109.9s49.3 109.9 109.9 109.9 109.9-49.3 109.9-109.9-49.3-109.9-109.9-109.9z" fill="#e62325"/><path d="m229.9 109v2.9c0 60.6-49.3 109.9-109.9 109.9s-109.9-49.3-109.9-109.9v-2.9h-2v2.9c0 61.7 50.2 111.9 111.9 111.9s111.9-50.2 111.9-111.9v-2.9z" fill="#5c1f1b"/><path d="m3.5 84.7-3.5 45.6h240.9l-3.5-45.6z" fill="#e62325"/><g fill="#535a5a"><path d="m45.5 68.6-6.8-4.2 2.7-4.3 1 .6-2 3.2 1.8 1.1 1.8-2.9 1 .6-1.8 2.9 2.1 1.3 2-3.2 1 .6zm1.6-10.4-1.9-.3 4.9 3.7-.7 1-6.4-4.8.9-1.2 5.1.6 1.9.3-4.9-3.7.7-1 6.4 4.8-.9 1.2zm4.3-9.1 5.1 4.6-.9 1-5.1-4.6-1.5 1.7-.9-.8 4.1-4.5.8.8zm7.8 1.7-5.4-5.8 3.7-3.5.8.8-2.8 2.6 1.5 1.5 2.5-2.4.8.8-2.5 2.4 1.7 1.8 2.8-2.6.8.8zm6.3-5.6-1 .8-5-6.3 2.7-2.1c1.1-.9 2.4-.7 3.3.5.7.9.8 1.8.2 2.7l3.4 1.6-1.1.8-3.3-1.5-1.2 1zm-1-4.7c.5-.4.6-.9.2-1.4l-.3-.4c-.4-.5-.9-.5-1.4-.1l-1.6 1.3 1.6 2zm6.2.7-4.4-6.7 2.9-1.9c1.2-.8 2.5-.5 3.3.7s.6 2.5-.6 3.3l-1.8 1.2 1.7 2.7zm-1.3-4.3 1.7-1.1c.5-.4.7-.9.3-1.4l-.3-.5c-.4-.5-.9-.6-1.4-.3l-1.7 1.1zm8.8-.4-1.1.6-3.8-7 3-1.6c1.3-.7 2.5-.3 3.2 1 .5 1 .4 1.9-.3 2.7l3.1 2.2-1.3.6-2.9-2.1-1.4.7zm-.2-4.7c.6-.3.8-.8.4-1.4l-.3-.5c-.3-.6-.8-.7-1.4-.4l-1.8 1 1.2 2.2zm5.8 1.9-.4-1 1-.4-2.4-5.4-1 .4-.4-1 3.2-1.4.4 1-1 .4 2.4 5.4 1-.4.4 1zm4.1-3.1.6-1.1c.8.5 1.5.6 2.3.3 1-.3 1.3-1 1-1.7-.2-.6-.6-.8-1.6-.7l-.7.1c-1.6.2-2.5-.2-3-1.4-.5-1.3.3-2.5 1.9-3.1 1.1-.4 2.1-.3 3 .2l-.6 1.1c-.6-.4-1.2-.5-2.1-.2s-1.2.8-1 1.5c.2.6.7.8 1.6.6l.7-.1c1.6-.2 2.5.2 2.9 1.4.5 1.4-.2 2.7-1.9 3.3-1.2.5-2.2.3-3.1-.2zm7.7-1.4-2-7.7 4.9-1.3.3 1.1-3.7 1 .5 2 3.4-.9.3 1.1-3.4.9.6 2.4 3.7-1 .3 1.1zm9-10.2 2.8-.4c2-.3 3.5.9 3.9 3.5s-.8 4.1-2.8 4.4l-2.8.4zm3.7 6.4c1.2-.2 1.9-1 1.7-2.5l-.2-1.3c-.2-1.4-1.1-2.1-2.3-1.9l-1.5.2.8 5.6zm5.5.5-.4-8 5.1-.2v1.1l-3.8.2.1 2.1 3.5-.2.1 1.1-3.5.2.1 2.4 3.8-.2.1 1.1zm6.6-1.4.9-.8c.5.7 1.2 1.1 2.1 1.1 1 0 1.6-.4 1.6-1.2 0-.6-.3-1-1.2-1.2l-.7-.2c-1.5-.3-2.3-1.1-2.2-2.4.1-1.4 1.2-2.2 2.9-2.2 1.2 0 2.1.5 2.7 1.3l-.9.8c-.4-.6-1-.9-1.8-.9-.9 0-1.5.3-1.5 1s.4 1 1.2 1.2l.7.2c1.6.4 2.3 1.1 2.2 2.4-.1 1.5-1.2 2.4-3 2.4-1.5-.1-2.4-.7-3-1.5zm7.4 1.6.1-1 1.1.1.6-5.8-1.1-.1.1-1 3.5.4-.1 1-1.1-.1-.6 5.8 1.1.1-.1 1zm10.7.4c-.3.7-1.2 1.1-2.4.9-1.9-.4-3-2-2.5-4.7.5-2.6 2.1-3.8 4.2-3.4 1.4.3 2.3 1.1 2.6 2.3l-1.1.4c-.2-.8-.7-1.4-1.7-1.6-1.2-.2-2.2.4-2.5 1.9l-.2 1.3c-.3 1.4.4 2.4 1.6 2.7 1 .2 1.9-.2 2.1-1.1l.1-.6-1.6-.3.2-1.1 2.8.5-.8 4.2-1.1-.2zm6.2-1.8-.4-1.9-1.7 5.9-1.2-.3 2.3-7.7 1.4.4 1.3 5 .4 1.9 1.7-5.9 1.2.3-2.3 7.7-1.4-.4zm13.2 2.3-2.7 6.3-1.2-.5 2.7-6.3-2.2-1 .5-1 5.5 2.4-.5 1zm6.9 7.1-3.2-1.7-1.7 3.1-1.1-.6 3.9-7 1.1.6-1.6 2.9 3.2 1.7 1.6-2.9 1.1.6-3.9 7-1.1-.6zm1.1 4.9.6-.9.9.6 3.2-4.9-.9-.6.6-.9 2.9 1.9-.6.9-.9-.6-3.2 4.9.9.6-.6.9zm9 .8.3-1.9-3.8 4.8-1-.8 4.9-6.3 1.1.9-.7 5.1-.3 1.9 3.8-4.8 1 .8-4.9 6.3-1.1-.9zm6.5 6.5-1.7.2-1.7 1.8-.9-.9 5.5-5.8.9.9-2.8 2.9 1.8-.3 3.3-.4 1.1 1-4.4.5-.9 5.5-1.1-1.1zm1.1 6.3.8-.7.7.8 4.3-4-.7-.8.8-.7 2.3 2.6-.8.7-.7-.8-4.3 4 .7.8-.8.7zm8.5 3.1.8-1.7-4.8 3.7-.8-1 6.3-4.9.9 1.1-1.9 4.8-.8 1.7 4.8-3.7.8 1-6.3 4.9-.9-1.1zm4.1 11.5c-.8.2-1.7-.1-2.3-1.1-1-1.6-.5-3.6 1.7-5 2.3-1.4 4.2-1 5.4.7.8 1.2.7 2.4.1 3.5l-1.1-.6c.5-.7.6-1.5 0-2.3-.7-1.1-1.8-1.3-3.1-.5l-1.1.7c-1.2.8-1.5 2-.8 3 .5.9 1.4 1.3 2.3.8l.5-.3-.9-1.4.9-.6 1.5 2.4-3.6 2.3-.6-1z"/><circle cx="59.7" cy="156.7" r="1"/><path d="m50.3 155.7h2.1v2.1h-2.1z"/><circle cx="80.4" cy="169.6" r="1"/><circle cx="77.1" cy="169.6" r="1"/><circle cx="103.1" cy="169.6" r="1"/><path d="m92.9 170.6h2.4l-1.2-2zm-30.9-2h2.1v2.1h-2.1zm35.5 0h2.1v2.1h-2.1z"/><circle cx="129" cy="201.4" r="1"/><circle cx="119.6" cy="201.4" r="1"/><path d="m97.8 202.4h2.4l-1.2-2zm8.4-2h2.1v2.1h-2.1zm-38.9-47.7h3.4v2.1h-3.4z"/><circle cx="86.5" cy="180.8" r="1"/><path d="m61.6 181.8h2.4l-1.2-2zm13.6-2h2.1v2.1h-2.1z"/><circle cx="75.2" cy="147.9" r="1"/><path d="m69.9 146.8h2.1v2.1h-2.1z"/><circle cx="53.5" cy="147.7" r="1"/><circle cx="50.2" cy="147.7" r="1"/><path d="m40 148.8h2.4l-1.2-2.1zm4.6-2.1h2.1v2.1h-2.1zm67 3.3c-.3-.6-.6-1.2-1.1-1.7-1-1-2.3-1.5-3.6-1.5-.7 0-1.3.1-2 .4-.6.2-1.2.6-1.7 1.1l-2.2 2.2-1.2-1.2-.4-.4-.6-.6c-.5-.5-1.1-.9-1.7-1.1s-1.3-.4-2-.4h-8.8v2.1h8.8c.4 0 .8.1 1.2.2s.7.4 1 .7l.5.5 1.7 1.7-2.2 2.2c-.3.3-.6.5-1 .7-.4.1-.7.2-1.1.2s-.8-.1-1.2-.2h-.1l-.7 2c.6.2 1.3.4 1.9.4.7 0 1.3-.1 1.9-.4s1.2-.6 1.7-1.1l2.2-2.2 2.2 2.2c.5.5 1.1.9 1.7 1.1.6.3 1.3.4 1.9.4.7 0 1.3-.1 1.9-.4.6-.2 1.2-.6 1.7-1.1s.9-1.1 1.1-1.7c.3-.6.4-1.3.4-1.9.2-1 .1-1.6-.2-2.2zm-1.9 3.1c-.1.4-.4.7-.7 1s-.6.5-1 .7c-.4.1-.8.2-1.2.2s-.8-.1-1.1-.2c-.4-.1-.7-.4-1-.7l-2.2-2.2 2.2-2.2c.3-.3.6-.5 1-.7.4-.1.8-.2 1.2-.2.8 0 1.5.3 2.1.9.3.3.5.6.7 1 .1.4.2.8.2 1.1 0 .5-.1.9-.2 1.3z"/><circle cx="93.7" cy="155.7" r="1"/><path d="m93.6 161.6c0-.6-.4-1-1-1h-26v2.1h26.1c.5-.1.9-.5.9-1.1zm1 31c0-.6-.4-1-1-1h-14.2v2.1h14.2c.5-.1 1-.5 1-1.1z"/><circle cx="174.8" cy="147.6" r="1"/><circle cx="165.2" cy="147.7" r="1"/><path d="m159.8 146.7h2.1v2.1h-2.1zm28 1.9h2.3l-1.1-2zm9.5-2h2.1v2.1h-2.1z"/><circle cx="187.7" cy="157.7" r="1"/><circle cx="184.5" cy="157.7" r="1"/><path d="m146.4 162.7h2.4l-1.2-2.1zm27.6-6h2.1v2.1h-2.1zm17.6 8h2.4l-1.2-2z"/><circle cx="130.1" cy="178.6" r="1"/><circle cx="133.3" cy="178.6" r="1"/><circle cx="169.6" cy="178.6" r="1"/><circle cx="181.2" cy="178.6" r="1"/><path d="m136.3 177.5h30v2.1h-30zm-31.7 1.9c-.5.5-.9 1.1-1.1 1.7-.3.6-.4 1.3-.4 1.9 0 .7.1 1.3.4 1.9s.6 1.2 1.1 1.7 1.1.9 1.7 1.1 1.3.4 1.9.4c.7 0 1.3-.1 1.9-.4s1.2-.6 1.7-1.1l2.2-2.2 2.2 2.2c.5.5 1.1.9 1.7 1.1.6.3 1.3.4 1.9.4.7 0 1.3-.1 1.9-.4.6-.2 1.2-.6 1.7-1.1s.9-1.1 1.1-1.7c.3-.6.4-1.3.4-1.9 0-.7-.1-1.3-.4-1.9s-.6-1.2-1.1-1.7c-1-1-2.3-1.5-3.6-1.5-.7 0-1.3.1-2 .4-.6.2-1.2.6-1.7 1.1l-2.2 2.2-2.2-2.2c-.5-.5-1.1-.9-1.7-1.1s-1.3-.4-2-.4c-1.1 0-2.4.5-3.4 1.5zm13.1 1.4c.3-.3.6-.5 1-.7.4-.1.8-.2 1.2-.2.8 0 1.5.3 2.1.9.3.3.5.6.7 1 .1.4.2.8.2 1.1 0 .4-.1.8-.2 1.2s-.4.7-.7 1-.6.5-1 .7c-.4.1-.8.2-1.2.2s-.8-.1-1.1-.2c-.4-.1-.7-.4-1-.7l-2.2-2.2zm-7.3 0 2.2 2.2-2.2 2.2c-.3.3-.6.5-1 .7-.4.1-.7.2-1.1.2s-.8-.1-1.2-.2-.7-.4-1-.7-.5-.6-.7-1c-.1-.4-.2-.8-.2-1.2s.1-.8.2-1.1c.1-.4.4-.7.7-1 .6-.6 1.4-.9 2.1-.9.4 0 .8.1 1.2.2s.7.3 1 .6z"/><circle cx="137.5" cy="161.6" r="1"/><circle cx="143.2" cy="189.8" r="1"/><circle cx="137.6" cy="189.8" r="1"/><path d="m159.5 190.9h2.3l-1.2-2.1zm-41-21.1c0 .6.4 1 1 1h7.4v-2.1h-7.4c-.6.1-1 .6-1 1.1zm43.2 14.1c0 .6.4 1 1 1h10.9v-2.1h-10.9c-.6.1-1 .5-1 1.1zm-36.8-36.2c0 .6.4 1 1 1h25.1v-2.1h-25.1c-.6.1-1 .6-1 1.1zm43.4 16c0 .6.4 1 1 1h12.7v-2.1h-12.8c-.5.1-.9.5-.9 1.1zm-68-114.2h7.9v1.2h-7.9zm17.4 0h.3l.3.1h.3l.2.1.3.1.3.1.2.2h.3l.2.2.2.2.2.2h-11.2v-1.2zm5 0h6.4l.4 1.2h-6.8zm11.5 0h6.4v1.2h-6.7zm-33.9 2.2h7.9v1h-7.9zm2.3 2.2h3.4v1h-3.4zm0 2h3.4v1.2h-3.4zm18.8-4.2v.1l.1.2.1.3.1.4h-12.4v-1zm-9.9 2.2h3.4v1h-3.4zm10.4 0v.1l-.1.3v.3l-.1.2-.1.1h-3.4v-1zm-.7 2-.1.2-.2.3-.2.1-.2.2-.2.3-.2.1h-8.6v-1.2zm1.5-4.2h7.1l.5 1h-7.6zm17.9 0v1h-7.5l.4-1zm-15.6 2.2h5.6l.4 1h-6zm13.4 0v1h-6l.4-1zm-9.7 3.2h6l.3-1v1h3.4v-1.2h-6.3l-.4 1.1-.4-1.1h-6.3v1.2h3.4v-1zm-28.4 7.4h7.9v1.1h-7.9zm0-2.2h7.9v1.2h-7.9zm2.3-4.2h3.4v1.1h-3.4zm0 2.2h3.4v1.1h-3.4zm17.5-2.2.2.2.2.1.2.2.2.3.2.2.1.1h-9.7v-1.1zm-8.6 2.2h3.4v1.1h-3.4zm10.1 0h.1l.1.3v.3l.1.3v.2h-3.7v-1.1zm.1 2v.3l-.1.3-.1.2-.1.3v.1h-12.1v-1.2zm-1.2 2.2-.2.2-.2.1-.2.2-.3.2-.2.1-.3.1-.3.1h-.3l-.3.1h-8.9v-1.1zm4.5-6.4h3.4v1.1h-3.4zm9 1.1h-4.6l-.3-1.1h5.2zm1-1.1h3.4v1.1h-3.4zm-10 2.2h3.4v1.1h-3.4zm8.6 0-.4 1.1h-3l-.5-1.1zm1.4 0h3.4v1.1h-3.4zm-12.3 2h5.7v1.2h-5.7zm10.2 0-.4 1.2h-1.6l-.4-1.2zm2.1 0h5.6v1.2h-5.6zm-12.3 2.2h5.7v1.1h-5.7zm12.3 0h5.6v1.1h-5.6zm-3.3 1.1.5-1.1h-1l.4 1.1z"/></g><path d="m39.1 107.4c0-5.5 2.1-8.6 6.5-8.6 3.4 0 5.2 1.9 5.9 4.8l-3.3.8c-.3-1.6-1-2.7-2.6-2.7-1.9 0-2.7 1.6-2.7 4.3v2.9c0 2.6.7 4.3 2.7 4.3 1.7 0 2.2-1.1 2.6-2.7l3.3.8c-.6 2.9-2.5 4.8-5.9 4.8-4.4-.1-6.5-3.2-6.5-8.7zm16.3 0c0-5.4 2.1-8.6 6.5-8.6s6.5 3.2 6.5 8.6-2.1 8.6-6.5 8.6c-4.5 0-6.5-3.2-6.5-8.6zm9.2 1.5v-2.9c0-2.7-.6-4.3-2.7-4.3s-2.7 1.6-2.7 4.3v2.9c0 2.7.6 4.3 2.7 4.3 2 0 2.7-1.6 2.7-4.3zm10.1 1.2v-3.4h7.6v3.4zm14.4-2.7c0-5.5 2.1-8.6 6.5-8.6 3.4 0 5.2 1.9 5.9 4.8l-3.3.8c-.4-1.6-1-2.7-2.6-2.7-1.9 0-2.7 1.6-2.7 4.3v2.9c0 2.6.7 4.3 2.7 4.3 1.7 0 2.2-1.1 2.6-2.7l3.3.8c-.6 2.9-2.5 4.8-5.9 4.8-4.4-.1-6.5-3.2-6.5-8.7zm21.1 8.4h-3.5v-16.6h6.4c3.3 0 5.1 2.1 5.1 5.3 0 2.3-1 4.1-2.9 4.7l3.3 6.7h-3.9l-2.8-6.2h-1.7zm1.9-9c1.7 0 2.2-.6 2.2-2.1v-.7c0-1.4-.6-2.1-2.2-2.1h-2.1v4.8h2.1zm11.2 9v-16.6h10.7v2.9h-7.1v3.8h6.8v2.9h-6.8v4h7.1v2.9zm25.2 0-1-4h-4.5l-1 4h-3.7l4.5-16.6h5.1l4.5 16.6zm-3.2-13.2h-.2l-1.6 6.3h3.4zm18.5-.6v13.7h-3.6v-13.7h-4.8v-2.9h13.2v2.9zm8.3 5.4c0-5.4 2.1-8.6 6.5-8.6s6.5 3.2 6.5 8.6-2.1 8.6-6.5 8.6-6.5-3.2-6.5-8.6zm9.2 1.5v-2.9c0-2.7-.6-4.3-2.7-4.3s-2.7 1.6-2.7 4.3v2.9c0 2.7.6 4.3 2.7 4.3s2.7-1.6 2.7-4.3zm12.2 6.9h-3.5v-16.6h6.4c3.3 0 5.1 2.1 5.1 5.3 0 2.3-1 4.1-2.9 4.7l3.3 6.7h-3.9l-2.8-6.2h-1.7zm2-9c1.7 0 2.2-.6 2.2-2.1v-.7c0-1.4-.6-2.1-2.2-2.1h-2.1v4.8h2.1z" fill="#fff"/></svg>